<svg width="1440" height="539" viewBox="0 0 1440 539" fill="none" xmlns="http://www.w3.org/2000/svg">
<rect y="-2" width="1440" height="541" fill="#FFA400"/>
<path d="M1052.5 433.5C1035.5 451 989.5 543 979 538.5L981.5 351.5L1277.5 119H1440.5V332.5C1437.33 338 1429.3 352.4 1424.5 356C1419.7 359.6 1412.5 364.42 1395.5 351.5C1383 342 1374.5 331.5 1345 323.5C1315.09 315.388 1291.5 333.5 1272.5 362C1265.79 372.062 1235 444 1232.5 447C1230 450 1198.5 470.5 1152 439.5C1105.5 408.5 1067.41 418.15 1052.5 433.5Z" fill="#DF9002"/>
<path d="M980 537H-1L-0.5 -2.5H1442V290C1434.48 299.348 1412.79 392.846 1363.5 321C1359.04 314.5 1286.65 231.5 1242 423.5C1222 509.5 1145.5 376.5 1070 389.5C1018.55 398.358 986.5 513.5 980 537Z" fill="#F5BC54"/>
<circle cx="132" cy="420" r="35" fill="#FFA400"/>
<circle cx="164.5" cy="384.5" r="20.5" fill="#F2A821"/>
<circle cx="178" cy="472" r="20" fill="#FFA400"/>
<circle cx="83.5" cy="67.5" r="29.5" fill="#FFA400"/>
<circle cx="915" cy="366" r="25" fill="#F2A821"/>
<circle cx="948" cy="420" r="33" fill="#FFA400"/>
</svg>
